<?xml version="1.0" encoding="UTF-8" standalone="no"?>
<svg
   id="Layer_1"
   data-name="Layer 1"
   width="224.1"
   height="112.4"
   viewBox="0 0 224.1 112.4"
   version="1.1"
   sodipodi:docname="face 1.svg"
   inkscape:version="1.4.3 (0d15f75, 2025-12-25)"
   xmlns:inkscape="http://www.inkscape.org/namespaces/inkscape"
   xmlns:sodipodi="http://sodipodi.sourceforge.net/DTD/sodipodi-0.dtd"
   xmlns="http://www.w3.org/2000/svg"
   xmlns:svg="http://www.w3.org/2000/svg">
  <sodipodi:namedview
     id="namedview22"
     pagecolor="#ffffff"
     bordercolor="#000000"
     borderopacity="0.25"
     inkscape:showpageshadow="2"
     inkscape:pageopacity="0.0"
     inkscape:pagecheckerboard="0"
     inkscape:deskcolor="#d1d1d1"
     inkscape:zoom="4.774858"
     inkscape:cx="102.30671"
     inkscape:cy="50.996281"
     inkscape:window-width="1920"
     inkscape:window-height="1004"
     inkscape:window-x="-8"
     inkscape:window-y="-8"
     inkscape:window-maximized="1"
     inkscape:current-layer="Layer_1" />
  <defs
     id="defs1">
    <style
       id="style1">
      .cls-1 {
        fill: #2c2c2c;
      }

      .cls-2 {
        fill: #222;
      }

      .cls-3 {
        fill: #7cb2e8;
      }

      .cls-4 {
        fill: #f66;
      }

      .cls-5 {
        fill: #ff69f8;
      }

      .cls-6 {
        fill: #40e2a0;
      }

      .cls-7 {
        fill: #d3d3d3;
      }

      .cls-8 {
        fill: #ddd;
      }

      .cls-9 {
        fill: #834d17;
      }

      .cls-10 {
        fill: #099;
      }

      .cls-11 {
        fill: #009607;
      }

      .cls-12 {
        fill: #bf1d5f;
      }
    </style>
  </defs>
  <g
     id="g3">
    <g
       id="g2">
      <path
         class="cls-1"
         d="M27.3,53.6A26.3,26.3,0,1,1,53.6,27.3,26.33,26.33,0,0,1,27.3,53.6Z"
         id="path1"
         style="fill:#000000;fill-opacity:1" />
      <path
         class="cls-2"
         d="M27.3,2A25.3,25.3,0,1,1,2,27.3,25.33,25.33,0,0,1,27.3,2m0-2A27.3,27.3,0,1,0,54.6,27.3,27.34,27.34,0,0,0,27.3,0Z"
         id="path2"
         style="fill:#c89600;fill-opacity:1" />
    </g>
    <polygon
       class="cls-3"
       points="41.7 14.9 39.7 12.9 27.3 25.3 14.9 12.9 12.9 14.9 25.3 27.3 12.9 39.7 14.9 41.7 27.3 29.3 39.7 41.7 41.7 39.7 29.3 27.3 41.7 14.9"
       id="polygon2"
       style="fill:#c89632;fill-opacity:1" />
  </g>
  <g
     id="g5">
    <g
       id="g4">
      <path
         class="cls-1"
         d="M83.8,53.5A26.3,26.3,0,1,1,110,27.3,26.33,26.33,0,0,1,83.8,53.5Z"
         id="path3"
         style="fill:#000000;fill-opacity:1" />
      <path
         class="cls-2"
         d="M83.8,2.1A25.3,25.3,0,1,1,58.5,27.4,25.33,25.33,0,0,1,83.8,2.1m0-2A27.3,27.3,0,1,0,111,27.3,27.34,27.34,0,0,0,83.8.1Z"
         id="path4"
         style="fill:#c89600;fill-opacity:1" />
    </g>
    <path
       class="cls-4"
       d="M83.8,8.4a18.9,18.9,0,1,0,18.9,18.9A18.95,18.95,0,0,0,83.8,8.4Zm0,34.9a16,16,0,1,1,16-16A16,16,0,0,1,83.8,43.3Z"
       id="path5"
       style="fill:#c89632;fill-opacity:1" />
  </g>
  <g
     id="g8">
    <g
       id="g7">
      <path
         class="cls-1"
         d="M140.3,54.1a26.3,26.3,0,1,1,26.3-26.3A26.33,26.33,0,0,1,140.3,54.1Z"
         id="path6"
         style="fill:#000000;fill-opacity:1" />
      <path
         class="cls-2"
         d="M140.3,2.7A25.3,25.3,0,1,1,115,28,25.33,25.33,0,0,1,140.3,2.7m0-2A27.3,27.3,0,1,0,167.6,28,27.34,27.34,0,0,0,140.3.7Z"
         id="path7"
         style="fill:#c89600;fill-opacity:1" />
    </g>
    <path
       class="cls-5"
       d="M151.8,13.5H126V42.1h28.6V13.5Zm0,25.9h-23v-23h23Z"
       id="path8"
       style="fill:#c89632;fill-opacity:1" />
  </g>
  <g
     id="g11">
    <g
       id="g10">
      <path
         class="cls-1"
         d="M196.8,54.8a26.3,26.3,0,1,1,26.3-26.3A26.33,26.33,0,0,1,196.8,54.8Z"
         id="path9"
         style="fill:#000000;fill-opacity:1" />
      <path
         class="cls-2"
         d="M196.8,3.3a25.3,25.3,0,1,1-25.3,25.3A25.33,25.33,0,0,1,196.8,3.3m0-2a27.3,27.3,0,1,0,27.3,27.3A27.34,27.34,0,0,0,196.8,1.3Z"
         id="path10"
         style="fill:#c89600;fill-opacity:1" />
    </g>
    <path
       class="cls-6"
       d="M212.8,36.6,196.8,9l-16,27.6-1.6,2.8h35.2Zm-16,0H184.1l12.7-21.9,12.7,21.9Z"
       id="path11"
       style="fill:#c89632;fill-opacity:1" />
  </g>
  <g
     id="g14">
    <g
       id="g13">
      <path
         class="cls-7"
         d="M27.3,111.4A26.3,26.3,0,1,1,53.6,85.1,26.33,26.33,0,0,1,27.3,111.4Z"
         id="path12"
         style="fill:#e1e1e1;fill-opacity:1" />
      <path
         class="cls-8"
         d="M27.3,59.8A25.3,25.3,0,1,1,2,85.1,25.33,25.33,0,0,1,27.3,59.8m0-2A27.3,27.3,0,1,0,54.6,85.1,27.34,27.34,0,0,0,27.3,57.8Z"
         id="path13"
         style="fill:#ffe164;fill-opacity:1" />
    </g>
    <polygon
       class="cls-9"
       points="41.7 72.7 39.7 70.7 27.3 83.1 14.9 70.7 12.9 72.7 25.3 85.1 12.9 97.5 14.9 99.5 27.3 87.1 39.7 99.5 41.7 97.5 29.3 85.1 41.7 72.7"
       id="polygon13"
       style="fill:#ffffe1;fill-opacity:1" />
  </g>
  <g
     id="g16">
    <g
       id="g15">
      <path
         class="cls-7"
         d="M83.8,111.2a26.3,26.3,0,1,1,26.3-26.3A26.33,26.33,0,0,1,83.8,111.2Z"
         id="path14"
         style="fill:#e1e1e1;fill-opacity:1" />
      <path
         class="cls-8"
         d="M83.8,59.8A25.3,25.3,0,1,1,58.5,85.1,25.33,25.33,0,0,1,83.8,59.8m0-2a27.3,27.3,0,1,0,27.3,27.3A27.34,27.34,0,0,0,83.8,57.8Z"
         id="path15"
         style="fill:#ffe164;fill-opacity:1" />
    </g>
    <path
       class="cls-10"
       d="M83.8,66.1A18.9,18.9,0,1,0,102.7,85,18.95,18.95,0,0,0,83.8,66.1Zm0,34.9a16,16,0,1,1,16-16A16,16,0,0,1,83.8,101Z"
       id="path16"
       style="fill:#ffffe1;fill-opacity:1" />
  </g>
  <g
     id="g19">
    <g
       id="g18">
      <path
         class="cls-7"
         d="M140.3,111.2a26.3,26.3,0,1,1,26.3-26.3A26.33,26.33,0,0,1,140.3,111.2Z"
         id="path17"
         style="fill:#e1e1e1;fill-opacity:1" />
      <path
         class="cls-8"
         d="M140.3,59.8A25.3,25.3,0,1,1,115,85.1a25.33,25.33,0,0,1,25.3-25.3m0-2a27.3,27.3,0,1,0,27.3,27.3,27.34,27.34,0,0,0-27.3-27.3Z"
         id="path18"
         style="fill:#ffe164;fill-opacity:1" />
    </g>
    <path
       class="cls-11"
       d="M151.8,70.6H126V99.2h28.6V70.6Zm0,25.9h-23v-23h23Z"
       id="path19"
       style="fill:#ffffe1;fill-opacity:1" />
  </g>
  <g
     id="g22">
    <g
       id="g21">
      <path
         class="cls-7"
         d="M196.8,111.3A26.3,26.3,0,1,1,223.1,85,26.33,26.33,0,0,1,196.8,111.3Z"
         id="path20"
         style="fill:#e1e1e1;fill-opacity:1" />
      <path
         class="cls-8"
         d="M196.8,59.8a25.3,25.3,0,1,1-25.3,25.3,25.33,25.33,0,0,1,25.3-25.3m0-2a27.3,27.3,0,1,0,27.3,27.3,27.34,27.34,0,0,0-27.3-27.3Z"
         id="path21"
         style="fill:#ffe164;fill-opacity:1" />
    </g>
    <path
       class="cls-12"
       d="M212.8,93l-16-27.6L180.8,93l-1.6,2.8h35.2Zm-16,0H184.1l12.7-21.9L209.5,93Z"
       id="path22"
       style="fill:#ffffe1;fill-opacity:1" />
  </g>
</svg>
