<?xml version="1.0" encoding="UTF-8" standalone="no"?>
<svg
   id="Layer_1"
   data-name="Layer 1"
   width="200.1"
   height="90.8"
   viewBox="0 0 200.1 90.8"
   version="1.1"
   sodipodi:docname="triggers 1.svg"
   inkscape:version="1.4.3 (0d15f75, 2025-12-25)"
   xmlns:inkscape="http://www.inkscape.org/namespaces/inkscape"
   xmlns:sodipodi="http://sodipodi.sourceforge.net/DTD/sodipodi-0.dtd"
   xmlns="http://www.w3.org/2000/svg"
   xmlns:svg="http://www.w3.org/2000/svg">
  <sodipodi:namedview
     id="namedview8"
     pagecolor="#ffffff"
     bordercolor="#000000"
     borderopacity="0.25"
     inkscape:showpageshadow="2"
     inkscape:pageopacity="0.0"
     inkscape:pagecheckerboard="0"
     inkscape:deskcolor="#d1d1d1"
     inkscape:zoom="5.9107272"
     inkscape:cx="89.75207"
     inkscape:cy="47.794458"
     inkscape:window-width="1920"
     inkscape:window-height="1004"
     inkscape:window-x="-8"
     inkscape:window-y="-8"
     inkscape:window-maximized="1"
     inkscape:current-layer="Layer_1" />
  <defs
     id="defs1">
    <style
       id="style1">
      .cls-1 {
        fill: #3ed8d2;
      }

      .cls-2 {
        fill: #61e0df;
      }

      .cls-3 {
        opacity: 0.08;
      }
    </style>
  </defs>
  <g
     id="g5">
    <g
       id="g2">
      <path
         class="cls-1"
         d="M199.9,90.8s-32.7-3.2-50.6-3.2S101,90,101,90s3.1-44.7,4.8-52,7.7-21.3,16.9-27.9S134.7,0,145.5,0s25.4,6.4,34.6,21.4S199.9,90.8,199.9,90.8Z"
         transform="translate(0.1)"
         id="path1"
         style="fill:#ffe100;fill-opacity:1" />
      <path
         class="cls-2"
         d="M101.5,83.2s26.1-4.4,49-4.4,47.9,4.4,47.9,4.4c1,4.7,1.6,7.6,1.6,7.6s-32.7-3.2-50.6-3.2S101.1,90,101.1,90,101.1,87.3,101.5,83.2Z"
         transform="translate(0.1)"
         id="path2"
         style="fill:#ffe164;fill-opacity:1" />
    </g>
    <g
       class="cls-3"
       id="g4">
      <path
         d="M151.5,65.7l-3.2,2.6a6.71,6.71,0,0,0-2,4.5h9.8V70.2h-6.2a6.71,6.71,0,0,1,2.1-1.9,12.47,12.47,0,0,0,2.7-2.1,4.77,4.77,0,0,0,1.3-3.3,4.22,4.22,0,0,0-1.4-3.3,5.13,5.13,0,0,0-3.5-1.2c-3.1,0-4.7,1.7-4.7,5h2.7q0-2.7,2.1-2.7a1.83,1.83,0,0,1,2,2.1A3.76,3.76,0,0,1,151.5,65.7Z"
         transform="translate(0.1)"
         id="path3"
         style="fill:#000000;fill-opacity:1;stroke:none;stroke-opacity:1;stroke-width:1;stroke-dasharray:none" />
      <path
         d="M133.9,67.2h3c1.5,0,2.3.6,2.4,1.9s.2,2.5.3,3.8h3.3v-.4c-.5-.2-.7-.7-.7-1.5a2.81,2.81,0,0,1,.1-.8v-.7a3.56,3.56,0,0,0-1.8-3.5,3.25,3.25,0,0,0,2.2-3.4,3.54,3.54,0,0,0-1.3-3,4.72,4.72,0,0,0-3.2-1h-7.3V72.8h3Zm0-6.2h3.7c1.4,0,2.1.6,2.1,1.9s-.8,1.9-2.3,1.9h-3.5Z"
         transform="translate(0.1)"
         id="path4"
         style="fill:#000000;fill-opacity:1;stroke:none;stroke-opacity:1;stroke-width:1;stroke-dasharray:none" />
    </g>
  </g>
  <g
     id="g8">
    <g
       id="g6">
      <path
         class="cls-1"
         d="M0,90.8s32.7-3.2,50.6-3.2S98.9,90,98.9,90s-3.1-44.7-4.8-52S86.4,16.7,77.2,10.1,65.2,0,54.4,0,29,6.4,19.8,21.4,0,90.8,0,90.8Z"
         transform="translate(0.1)"
         id="path5"
         style="fill:#ffe100;fill-opacity:1" />
      <path
         class="cls-2"
         d="M98.4,83.2s-26.1-4.4-49-4.4S1.5,83.2,1.5,83.2c-1,4.7-1.6,7.6-1.6,7.6s32.7-3.2,50.6-3.2S98.8,90,98.8,90,98.8,87.3,98.4,83.2Z"
         transform="translate(0.1)"
         id="path6"
         style="fill:#ffe164;fill-opacity:1" />
    </g>
    <g
       class="cls-3"
       id="g7">
      <path
         d="M64.5,65.7l-3.2,2.6a6.71,6.71,0,0,0-2,4.5h9.8V70.2H62.9A6.71,6.71,0,0,1,65,68.3a12.47,12.47,0,0,0,2.7-2.1A4.77,4.77,0,0,0,69,62.9a4.22,4.22,0,0,0-1.4-3.3,5.13,5.13,0,0,0-3.5-1.2c-3.1,0-4.7,1.7-4.7,5h2.7q0-2.7,2.1-2.7a1.83,1.83,0,0,1,2,2.1A3.5,3.5,0,0,1,64.5,65.7Z"
         transform="translate(0.1)"
         id="path7"
         style="fill:#000000;fill-opacity:1;stroke:none;stroke-opacity:1;stroke-width:1;stroke-dasharray:none" />
      <polygon
         points="56.1 70.2 49 70.2 49 58.5 46 58.5 46 72.8 56.1 72.8 56.1 70.2"
         id="polygon7"
         style="fill:#000000;fill-opacity:1;stroke:none;stroke-opacity:1;stroke-width:1;stroke-dasharray:none" />
    </g>
  </g>
</svg>
